<svg width="100" height="83" viewBox="0 0 100 83" fill="none" xmlns="http://www.w3.org/2000/svg">
<path d="M99.1148 79.9829C98.0297 81.8961 96.3449 82.8098 94.2033 82.8098H5.79667C3.62648 82.8098 1.94173 81.8961 0.885187 79.9829C0.351823 78.7597 0.098186 77.433 0.142761 76.0994C0.180835 58.833 0.190346 41.5572 0.171309 24.2718C0.171309 22.5585 0.28553 22.4443 2.02739 22.3872H96.6876C99.8286 22.3872 99.8286 22.3872 99.8286 25.5568C99.8286 42.4043 99.8001 59.2519 99.8286 76.0994C99.8286 77.47 99.6859 78.755 99.1148 79.9829Z" fill="#61FA70"/>
<path d="M99.1148 79.9829C100 77.1845 99.6859 74.3289 99.6859 71.502C99.6859 55.8823 99.6573 40.2913 99.7144 24.6716C99.7144 23.3295 99.486 22.8155 97.944 22.8155C65.9813 22.8726 34.0091 22.8726 2.02741 22.8155C0.685316 22.8155 0.256996 23.1296 0.285551 24.5574C0.323625 41.8618 0.323625 59.1757 0.285551 76.4991C0.285551 77.727 0.799536 78.8121 0.885201 79.9829C0.171324 79.1833 0 78.2124 0 77.1845C0 53.3505 0.0095114 29.507 0.0285481 5.65392C0.024764 4.91412 0.167689 4.18093 0.449049 3.49672C0.73041 2.81251 1.14462 2.19086 1.66774 1.66775C2.19086 1.14463 2.8125 0.730417 3.49671 0.449056C4.18092 0.167696 4.91412 0.0247709 5.65391 0.0285551C13.3257 -0.00951837 20.988 -0.00951837 28.6408 0.0285551C31.8104 0.0571102 34.209 2.51285 34.2661 5.68247C34.3232 7.28156 34.3232 8.9092 34.2947 10.5368C34.2661 11.1936 34.4946 11.5077 35.1799 11.4506C35.5594 11.4122 35.9412 11.4027 36.3221 11.4221H94.0034C97.6299 11.4221 99.9714 13.735 99.9714 17.3615C99.9714 37.0645 99.981 56.7676 100 76.4706C100 77.727 100 78.9549 99.1148 79.9829Z" fill="#61FA70" fill-opacity="0.55"/>
</svg>
